<svg width="88" height="114" viewBox="0 0 88 114" fill="none" xmlns="http://www.w3.org/2000/svg" xmlns:xlink="http://www.w3.org/1999/xlink">
<path d="M72.518,10.115L45.37,0.242C44.481,-0.081 43.52,-0.081 42.631,0.242L15.483,10.115C11.166,11.679 7.411,14.687 4.752,18.711C2.092,22.735 0.663,27.571 0.667,32.532L0.667,56.716C0.667,92.461 40.534,112.203 42.241,113.025C42.795,113.293 43.394,113.432 44,113.432C44.606,113.432 45.206,113.293 45.76,113.025C47.467,112.203 87.334,92.461 87.334,56.716L87.334,32.532C87.338,27.571 85.909,22.735 83.249,18.711C80.589,14.687 76.834,11.679 72.518,10.115ZM78.667,56.716C78.667,82.498 51.285,99.409 44,103.454C36.707,99.423 9.334,82.564 9.334,56.716L9.334,32.532C9.334,29.556 10.193,26.655 11.789,24.241C13.385,21.827 15.637,20.022 18.226,19.081L44,9.709L69.775,19.081C72.364,20.022 74.616,21.827 76.212,24.241C77.808,26.655 78.667,29.556 78.667,32.532L78.667,56.716Z" fill="#A28C7F"/>
<path d="M58.299,39.23L40.151,59.08L30.427,48.021C30.037,47.555 29.566,47.18 29.04,46.916C28.515,46.653 27.946,46.507 27.369,46.486C26.791,46.466 26.215,46.572 25.675,46.799C25.135,47.025 24.643,47.367 24.226,47.804C23.809,48.241 23.477,48.765 23.249,49.344C23.02,49.924 22.901,50.547 22.897,51.178C22.893,51.808 23.004,52.433 23.225,53.016C23.446,53.599 23.772,54.128 24.183,54.571L34.176,65.914C34.921,66.792 35.822,67.496 36.824,67.983C37.825,68.471 38.907,68.732 40.004,68.75L40.147,68.75C41.222,68.754 42.287,68.525 43.28,68.076C44.273,67.627 45.174,66.968 45.932,66.136L64.444,45.946C64.848,45.506 65.169,44.983 65.388,44.408C65.607,43.832 65.721,43.216 65.721,42.593C65.722,41.97 65.61,41.353 65.392,40.777C65.174,40.201 64.854,39.678 64.451,39.237C64.047,38.796 63.568,38.446 63.04,38.207C62.513,37.968 61.947,37.844 61.376,37.844C60.805,37.843 60.239,37.965 59.711,38.203C59.183,38.441 58.704,38.79 58.299,39.23Z" fill="#A28C7F"/>
</svg>
