<svg width="88" height="138" viewBox="0 0 88 138" fill="none" xmlns="http://www.w3.org/2000/svg" xmlns:xlink="http://www.w3.org/1999/xlink">
<path d="M72.518,12.305L45.369,0.293C44.481,-0.1 43.52,-0.1 42.631,0.293L15.482,12.305C11.166,14.207 7.411,17.867 4.752,22.763C2.092,27.658 0.663,33.542 0.667,39.577L0.667,69C0.667,112.487 40.533,136.505 42.241,137.505C42.795,137.832 43.394,138.001 44,138.001C44.606,138.001 45.206,137.832 45.759,137.505C47.467,136.505 87.333,112.487 87.333,69L87.333,39.577C87.338,33.542 85.908,27.658 83.249,22.763C80.589,17.867 76.834,14.207 72.518,12.305ZM78.667,69C78.667,100.366 51.284,120.94 44,125.862C36.707,120.957 9.333,100.447 9.333,69L9.333,39.577C9.334,35.956 10.193,32.427 11.789,29.49C13.384,26.553 15.636,24.357 18.225,23.213L44,11.81L69.775,23.213C72.364,24.357 74.616,26.553 76.212,29.49C77.808,32.427 78.667,35.956 78.667,39.577L78.667,69Z" fill="#A28C7F"/>
<path d="M58.3,47.725L40.152,71.875L30.428,58.42C30.038,57.854 29.566,57.397 29.041,57.077C28.515,56.756 27.947,56.578 27.369,56.554C26.791,56.529 26.215,56.658 25.676,56.934C25.136,57.209 24.643,57.625 24.226,58.157C23.81,58.689 23.477,59.326 23.249,60.031C23.021,60.736 22.901,61.494 22.897,62.261C22.893,63.028 23.005,63.789 23.226,64.498C23.447,65.207 23.772,65.85 24.184,66.39L34.176,80.19C34.921,81.258 35.822,82.114 36.824,82.707C37.826,83.3 38.908,83.617 40.005,83.64L40.148,83.64C41.222,83.644 42.287,83.366 43.281,82.82C44.274,82.274 45.175,81.472 45.933,80.46L64.445,55.896C64.849,55.361 65.17,54.725 65.389,54.025C65.608,53.325 65.721,52.575 65.722,51.817C65.722,51.059 65.611,50.308 65.392,49.608C65.174,48.907 64.855,48.27 64.451,47.734C64.048,47.197 63.568,46.772 63.041,46.481C62.514,46.19 61.948,46.04 61.377,46.039C60.806,46.038 60.24,46.187 59.712,46.476C59.184,46.765 58.704,47.19 58.3,47.725Z" fill="#A28C7F"/>
</svg>
