<svg width="64" height="64" viewBox="0 0 64 64" fill="none" xmlns="http://www.w3.org/2000/svg" xmlns:xlink="http://www.w3.org/1999/xlink">
<path d="M52.5,15L45,15C45,11.022 43.42,7.206 40.607,4.393C37.794,1.58 33.978,0 30,0C26.022,0 22.206,1.58 19.393,4.393C16.58,7.206 15,11.022 15,15L7.5,15C5.511,15 3.603,15.79 2.197,17.197C0.79,18.603 0,20.511 0,22.5L0,47.5C0.004,50.814 1.322,53.991 3.666,56.334C6.009,58.678 9.186,59.996 12.5,60L35,60C35.663,60 36.299,59.737 36.768,59.268C37.237,58.799 37.5,58.163 37.5,57.5C37.5,56.837 37.237,56.201 36.768,55.732C36.299,55.263 35.663,55 35,55L12.5,55C10.511,55 8.603,54.21 7.197,52.803C5.79,51.397 5,49.489 5,47.5L5,22.5C5,21.837 5.263,21.201 5.732,20.732C6.201,20.263 6.837,20 7.5,20L15,20L15,25C15,25.663 15.263,26.299 15.732,26.768C16.201,27.237 16.837,27.5 17.5,27.5C18.163,27.5 18.799,27.237 19.268,26.768C19.737,26.299 20,25.663 20,25L20,20L40,20L40,25C40,25.663 40.263,26.299 40.732,26.768C41.201,27.237 41.837,27.5 42.5,27.5C43.163,27.5 43.799,27.237 44.268,26.768C44.737,26.299 45,25.663 45,25L45,20L52.5,20C53.163,20 53.799,20.263 54.268,20.732C54.737,21.201 55,21.837 55,22.5L55,35C55,35.663 55.263,36.299 55.732,36.768C56.201,37.237 56.837,37.5 57.5,37.5C58.163,37.5 58.799,37.237 59.268,36.768C59.737,36.299 60,35.663 60,35L60,22.5C60,20.511 59.21,18.603 57.803,17.197C56.397,15.79 54.489,15 52.5,15ZM20,15C20,12.348 21.054,9.804 22.929,7.929C24.804,6.054 27.348,5 30,5C32.652,5 35.196,6.054 37.071,7.929C38.946,9.804 40,12.348 40,15L20,15Z" fill="#615E59"/>
<g filter="url(#filter14_516)">
<circle cx="54" cy="54" r="10" fill="#CBBFAF"/>
</g>
<defs>
<filter id="filter14_516" x="35" y="35" width="28" height="28" filterUnits="userSpaceOnUse" color-interpolation-filters="sRGB">
<feFlood flood-opacity="0" result="BackgroundImageFix"/>
<feColorMatrix in="SourceAlpha" type="matrix" values="0 0 0 0 0 0 0 0 0 0 0 0 0 0 0 0 0 0 127 0" result="hardAlpha"/>
<feMorphology radius="0" operator="dilate" in="SourceAlpha" result="0dropshadow"/>
<feOffset dx="1" dy="2"/>
<feGaussianBlur stdDeviation="4.5"/>
<feComposite in2="hardAlpha" operator="out"/>
<feColorMatrix type="matrix" values="0 0 0 0 0 0 0 0 0 0 0 0 0 0 0 0 0 0 0.15 0"/>
<feBlend mode="normal" in2="BackgroundImageFix" result="0dropshadow"/>
<feBlend mode="normal" in="SourceGraphic" in2="0dropshadow" result="shape"/>
</filter>
</defs>
</svg>
