<svg width="3456" height="1092" viewBox="0 0 3456 1092" fill="none" xmlns="http://www.w3.org/2000/svg" xmlns:xlink="http://www.w3.org/1999/xlink">
<rect  x="0" y="0" width="3456" height="732" fill="#F2EFEA"/>
<rect  x="292.5" y="692" width="229.5" height="229.5" fill="#F2EFEA"/>
<rect  x="216" y="845" width="153" height="153" fill="#F2EFEA"/>
<g style="isolation:isolate">
<path d="M2728.031,281.604C2727.975,281.715 2727.921,281.827 2727.865,281.939C2727.973,281.854 2728.081,281.768 2728.189,281.683L2728.031,281.604ZM2727.865,281.939C2685.719,315.208 2651.475,357.084 2621.897,401.491C2592.323,446.17 2568.076,494.586 2549.552,545.07C2539.694,570.112 2532.857,596.268 2525.702,622.106C2522.999,635.302 2520.057,648.42 2517.593,661.696C2516.48,668.296 2514.81,674.814 2514.174,681.572L2511.869,701.606C2505.317,752.062 2493.532,836.104 2496.684,797.246C2499.467,771.726 2499.625,746.126 2500.023,720.528C2499.546,695.008 2498.91,669.328 2496.366,643.888C2492.073,592.928 2483.248,542.366 2470.131,492.916C2456.775,443.626 2439.921,394.813 2414.003,349.895C2416.945,401.411 2421.636,451.099 2426.008,500.788C2430.619,550.396 2435.309,599.606 2439.444,648.898L2441.272,667.342L2442.624,685.864C2442.624,685.864 2634.061,1059.04 2656.639,1036.224L2656.639,1036.144C2640.261,1036.224 2657.751,949.012 2703.623,932.714C2749.575,916.656 2799.421,907.512 2851.653,906.082L2851.733,906.002C2839.569,900.834 2826.769,897.258 2813.811,894.474C2800.853,891.612 2787.577,889.704 2774.221,888.67C2765.865,888 2757.453,887.662 2749.015,887.662C2730.479,887.662 2711.809,889.288 2693.289,892.566C2639.387,901.948 2571.176,908.784 2584.055,894.952C2610.767,868.398 2638.353,843.038 2668.167,819.584C2698.137,796.052 2729.461,774.032 2765.315,753.758L2765.475,753.678C2761.229,753.274 2756.979,753.086 2752.731,753.086C2736.147,753.086 2719.605,755.94 2703.465,759.8L2688.359,763.934C2683.351,765.366 2678.581,767.352 2673.573,769.102C2663.635,772.52 2654.175,776.894 2644.713,781.424C2607.031,799.79 2573.084,825.308 2543.51,854.724C2543.51,854.724 2519.546,860.334 2557.184,819.506C2578.331,796.61 2601.545,775.542 2626.349,756.54C2650.939,737.782 2677.015,720.586 2704.575,706.736C2727.371,700.884 2750.109,694.448 2773.027,688.012C2803.079,679.028 2832.415,667.5 2859.365,651.52C2886.475,635.858 2912.471,617.972 2936.243,597.222C2948.009,586.728 2959.457,575.756 2969.871,563.752C2980.205,551.826 2990.143,539.106 2997.377,524.796C2983.625,532.906 2970.347,540.458 2956.913,547.932L2917.161,570.27L2838.217,614.234C2831.619,617.892 2825.101,621.708 2818.661,625.604C2812.141,629.34 2805.623,633.236 2799.183,637.29C2786.463,645.558 2773.585,653.746 2761.023,662.65C2748.303,671.316 2735.423,679.822 2722.385,688.25C2713.115,694.242 2703.443,699.308 2693.969,704.938C2677.723,713.184 2662.125,722.428 2646.991,732.416C2669.901,699.59 2693.369,671.236 2718.491,643.332C2744.089,614.712 2770.723,587.126 2797.513,559.3C2824.385,531.554 2851.495,503.728 2878.445,475.029C2905.237,446.17 2932.109,417.073 2957.309,384.239L2957.231,384.239C2917.957,397.754 2882.739,418.265 2849.269,441.003C2815.957,464.058 2784.793,490.214 2756.491,519.55C2728.189,548.806 2702.511,581.242 2681.919,617.256C2671.665,635.222 2662.761,654.144 2656.161,674.02C2649.801,693.332 2645.181,713.402 2645.035,733.712C2637.153,738.962 2629.395,744.41 2621.737,750.022C2607.17,760.778 2593.12,772.208 2579.662,784.31C2588.852,769.226 2596.654,753.898 2604.566,738.732C2609.416,729.59 2614.105,720.448 2618.637,711.306C2620.943,706.774 2623.089,702.082 2625.235,697.552C2627.541,693.02 2629.927,688.488 2632.073,683.878C2636.605,674.734 2640.977,665.592 2645.111,656.45L2658.229,629.18C2662.521,620.038 2666.417,610.816 2671.029,601.832L2683.669,574.484L2734.709,465.171C2751.801,428.442 2768.735,391.712 2786.145,352.916L2786.225,352.836C2768.099,364.364 2752.357,378.833 2737.411,393.859L2726.441,405.386C2722.863,409.282 2719.523,413.336 2716.105,417.311C2709.109,425.261 2702.749,433.689 2696.389,442.036C2671.187,475.824 2649.961,512.314 2631.993,550.236L2619.433,579.096C2615.377,588.794 2611.721,598.574 2608.223,608.51C2600.989,628.226 2595.026,648.262 2589.938,668.614C2587.156,678.71 2584.93,688.966 2583.101,699.3C2581.114,709.636 2579.444,719.97 2577.854,730.306C2575.317,749.932 2573.83,769.698 2573.789,789.67C2565.749,797.116 2557.929,804.808 2550.347,812.748C2540.107,823.47 2530.315,834.668 2521.047,846.3C2533.099,799.756 2542.376,754.514 2555.912,710.112C2562.113,685.308 2570.778,661.22 2577.775,636.734L2590.177,600.64C2592.244,594.598 2593.993,588.476 2596.219,582.594L2603.056,564.786C2620.467,517.006 2639.785,469.861 2661.011,423.035C2681.951,376.16 2704.315,329.759 2727.865,281.939Z" transform="rotate(-125.486 2705.691 659.417)" fill="#FFFFFF" fill-opacity="0.6"/>
</g>
</svg>
