<svg width="82" height="58" viewBox="0 0 82 58" fill="none" xmlns="http://www.w3.org/2000/svg" xmlns:xlink="http://www.w3.org/1999/xlink">
<path d="M56.25,-0.344C46.554,-0.344 38.67,6.465 38.67,14.838C38.67,15.341 38.816,15.833 38.873,16.325C26.885,15.335 16.284,10.348 9.083,2.719C8.748,2.352 8.228,2.155 7.684,2.188C7.145,2.221 6.664,2.489 6.398,2.894C4.885,5.141 4.017,7.728 4.017,10.506C4.017,13.87 5.41,16.948 7.563,19.475C7.145,19.316 6.69,19.229 6.297,19.038C5.797,18.808 5.195,18.819 4.707,19.07C4.22,19.322 3.922,19.776 3.916,20.262L3.916,20.437C3.916,25.594 7.006,30.073 11.566,32.819C11.515,32.813 11.464,32.83 11.414,32.819C10.856,32.737 10.293,32.906 9.919,33.273C9.546,33.639 9.425,34.148 9.59,34.612C11.401,39.474 16.024,43.187 21.749,44.544C17.189,46.884 11.901,48.262 6.196,48.262C4.961,48.262 3.776,48.208 2.599,48.087C1.839,48 1.11,48.383 0.857,49.006C0.597,49.63 0.882,50.324 1.535,50.669C8.849,54.721 17.531,57.1 26.866,57.1C41.995,57.1 53.862,51.642 61.822,43.844C69.783,36.045 73.931,25.917 73.931,16.456C73.931,16.057 73.893,15.669 73.88,15.275C76.85,13.312 79.503,11.009 81.581,8.319C81.992,7.799 81.948,7.105 81.473,6.623C81.004,6.142 80.213,5.995 79.554,6.263C78.718,6.585 77.743,6.618 76.869,6.875C78.022,5.546 79.01,4.113 79.605,2.5C79.807,1.948 79.586,1.341 79.06,0.98C78.535,0.624 77.8,0.58 77.224,0.881C74.456,2.298 71.391,3.293 68.155,3.9C65.014,1.363 60.879,-0.344 56.25,-0.344ZM56.25,2.456C60.385,2.456 64.121,3.982 66.737,6.394C67.129,6.744 67.706,6.891 68.256,6.788C70.372,6.427 72.379,5.896 74.336,5.213C73.209,6.525 71.815,7.646 70.182,8.494C69.441,8.805 69.092,9.544 69.365,10.216C69.631,10.884 70.441,11.272 71.246,11.119C72.867,10.949 74.311,10.38 75.856,10.025C74.469,11.321 72.949,12.491 71.296,13.525C70.847,13.809 70.6,14.269 70.638,14.75C70.663,15.319 70.688,15.882 70.688,16.456C70.688,25.206 66.8,34.705 59.391,41.962C51.981,49.219 41.102,54.3 26.866,54.3C20.4,54.3 14.295,53.064 8.779,50.887C15.619,50.434 21.926,48.344 27.018,44.894C27.55,44.527 27.759,43.915 27.543,43.357C27.328,42.799 26.733,42.416 26.055,42.4C20.71,42.318 16.233,39.633 13.846,35.837C13.934,35.837 14.01,35.837 14.099,35.837C15.701,35.837 17.284,35.662 18.76,35.312C19.469,35.132 19.957,34.563 19.931,33.923C19.906,33.284 19.38,32.737 18.658,32.6C12.889,31.594 8.564,27.536 7.563,22.494C9.197,22.98 10.869,23.363 12.68,23.412C13.421,23.451 14.093,23.052 14.32,22.444C14.548,21.837 14.27,21.17 13.643,20.831C9.793,18.605 7.259,14.816 7.259,10.506C7.259,8.909 7.741,7.444 8.374,6.044C16.48,13.727 27.828,18.83 40.646,19.388C41.152,19.409 41.646,19.229 41.976,18.895C42.305,18.556 42.432,18.108 42.318,17.681C42.071,16.773 41.912,15.811 41.912,14.838C41.912,7.98 48.308,2.456 56.25,2.456Z" fill="#FFFFFF"/>
</svg>
