<svg width="16" height="16" viewBox="0 0 16 16" fill="none" xmlns="http://www.w3.org/2000/svg" xmlns:xlink="http://www.w3.org/1999/xlink">
<path d="M15.965,9.045C15.965,8.908 15.88,8.754 15.708,8.582L12.248,5.208L13.07,0.429L13.07,0.223C13.07,0.098 13.036,-0.011 12.967,-0.102C12.899,-0.194 12.805,-0.242 12.685,-0.248C12.565,-0.254 12.436,-0.216 12.299,-0.137L8,2.125L3.717,-0.137C3.58,-0.216 3.449,-0.256 3.324,-0.256C3.198,-0.256 3.101,-0.205 3.032,-0.102C2.964,0.001 2.93,0.109 2.93,0.223C2.93,0.269 2.935,0.337 2.947,0.429L3.769,5.208L0.292,8.582C0.132,8.754 0.052,8.908 0.052,9.045C0.052,9.285 0.229,9.433 0.583,9.49L5.379,10.175L7.537,14.526C7.663,14.789 7.817,14.92 8,14.92C8.183,14.92 8.342,14.789 8.48,14.526L10.621,10.175L15.417,9.49C15.782,9.433 15.965,9.285 15.965,9.045Z" fill="#C3C5C9"/>
</svg>
