<svg width="76" height="64" viewBox="0 0 76 64" fill="none" xmlns="http://www.w3.org/2000/svg" xmlns:xlink="http://www.w3.org/1999/xlink">
<path d="M8.424,0.08C3.536,0.08 -0.464,3.501 -0.464,7.68L-0.464,56.32C-0.464,60.499 3.536,63.92 8.424,63.92L38.347,63.92C38.539,63.947 38.735,63.947 38.927,63.92L49.013,63.92C49.205,63.947 49.401,63.947 49.593,63.92L65.312,63.92C70.2,63.92 74.2,60.499 74.2,56.32L74.2,7.68C74.2,3.501 70.2,0.08 65.312,0.08L8.424,0.08ZM8.424,3.12L65.312,3.12C68.278,3.12 70.645,5.144 70.645,7.68L70.645,56.32C70.645,58.856 68.278,60.88 65.312,60.88L51.09,60.88L51.09,39.6L57.881,39.6L60.371,28.96L51.09,28.96L51.09,25.92C51.09,25.073 51.184,25.006 51.517,24.822C51.85,24.637 52.878,24.4 54.645,24.4L59.978,24.4L59.978,15.841L58.965,15.428C58.965,15.428 54.881,13.76 49.312,13.76C45.312,13.76 42.026,15.123 39.923,17.37C37.821,19.617 36.868,22.627 36.868,25.92L36.868,28.96L31.535,28.96L31.535,39.6L36.868,39.6L36.868,60.88L8.424,60.88C5.458,60.88 3.091,58.856 3.091,56.32L3.091,7.68C3.091,5.144 5.458,3.12 8.424,3.12ZM49.312,16.8C53.008,16.8 55.334,17.497 56.423,17.866L56.423,21.36L54.645,21.36C52.599,21.36 50.96,21.505 49.579,22.271C48.199,23.038 47.534,24.493 47.534,25.92L47.534,32L56.031,32L54.965,36.56L47.534,36.56L47.534,60.88L40.423,60.88L40.423,36.56L35.09,36.56L35.09,32L40.423,32L40.423,25.92C40.423,23.133 41.248,20.823 42.701,19.27C44.154,17.717 46.201,16.8 49.312,16.8Z" fill="#FFFFFF"/>
</svg>
