<svg width="76" height="64" viewBox="0 0 76 64" fill="none" xmlns="http://www.w3.org/2000/svg" xmlns:xlink="http://www.w3.org/1999/xlink">
<path d="M8.413,0.08C3.464,0.08 -0.586,3.501 -0.586,7.68L-0.586,56.32C-0.586,60.499 3.464,63.92 8.413,63.92L38.706,63.92C38.9,63.947 39.098,63.947 39.293,63.92L49.504,63.92C49.698,63.947 49.897,63.947 50.091,63.92L66.004,63.92C70.952,63.92 75.002,60.499 75.002,56.32L75.002,7.68C75.002,3.501 70.952,0.08 66.004,0.08L8.413,0.08ZM8.413,3.12L66.004,3.12C69.007,3.12 71.403,5.144 71.403,7.68L71.403,56.32C71.403,58.856 69.007,60.88 66.004,60.88L51.606,60.88L51.606,39.6L58.481,39.6L61.002,28.96L51.606,28.96L51.606,25.92C51.606,25.073 51.701,25.006 52.038,24.822C52.375,24.637 53.416,24.4 55.205,24.4L60.605,24.4L60.605,15.841L59.578,15.428C59.578,15.428 55.444,13.76 49.806,13.76C45.757,13.76 42.43,15.123 40.301,17.37C38.173,19.617 37.208,22.627 37.208,25.92L37.208,28.96L31.809,28.96L31.809,39.6L37.208,39.6L37.208,60.88L8.413,60.88C5.41,60.88 3.014,58.856 3.014,56.32L3.014,7.68C3.014,5.144 5.41,3.12 8.413,3.12ZM49.806,16.8C53.548,16.8 55.903,17.497 57.005,17.866L57.005,21.36L55.205,21.36C53.134,21.36 51.474,21.505 50.077,22.271C48.679,23.038 48.006,24.493 48.006,25.92L48.006,32L56.608,32L55.529,36.56L48.006,36.56L48.006,60.88L40.808,60.88L40.808,36.56L35.408,36.56L35.408,32L40.808,32L40.808,25.92C40.808,23.133 41.643,20.823 43.114,19.27C44.584,17.717 46.657,16.8 49.806,16.8Z" fill="#FFFFFF"/>
</svg>
