<svg width="84" height="58" viewBox="0 0 84 58" fill="none" xmlns="http://www.w3.org/2000/svg" xmlns:xlink="http://www.w3.org/1999/xlink">
<path d="M56.174,-0.344C46.261,-0.344 38.199,6.465 38.199,14.838C38.199,15.341 38.348,15.833 38.406,16.325C26.149,15.335 15.309,10.348 7.947,2.719C7.604,2.352 7.073,2.155 6.516,2.188C5.966,2.221 5.474,2.489 5.202,2.894C3.654,5.141 2.767,7.728 2.767,10.506C2.767,13.87 4.192,16.948 6.393,19.475C5.966,19.316 5.5,19.229 5.098,19.038C4.587,18.808 3.971,18.819 3.473,19.07C2.974,19.322 2.67,19.776 2.663,20.262L2.663,20.437C2.663,25.594 5.823,30.073 10.485,32.819C10.434,32.813 10.382,32.83 10.33,32.819C9.76,32.737 9.184,32.906 8.802,33.273C8.42,33.639 8.297,34.148 8.465,34.612C10.317,39.474 15.044,43.187 20.897,44.544C16.235,46.884 10.829,48.262 4.995,48.262C3.732,48.262 2.521,48.208 1.317,48.087C0.54,48 -0.205,48.383 -0.464,49.006C-0.729,49.63 -0.438,50.324 0.229,50.669C7.708,54.721 16.585,57.1 26.129,57.1C41.599,57.1 53.733,51.642 61.872,43.844C70.012,36.045 74.253,25.917 74.253,16.456C74.253,16.057 74.214,15.669 74.201,15.275C77.238,13.312 79.951,11.009 82.075,8.319C82.496,7.799 82.45,7.105 81.965,6.623C81.485,6.142 80.676,5.995 80.003,6.263C79.148,6.585 78.151,6.618 77.257,6.875C78.436,5.546 79.446,4.113 80.054,2.5C80.262,1.948 80.035,1.341 79.498,0.98C78.96,0.624 78.209,0.58 77.62,0.881C74.79,2.298 71.656,3.293 68.347,3.9C65.136,1.362 60.907,-0.344 56.174,-0.344ZM56.174,2.456C60.402,2.456 64.223,3.982 66.897,6.394C67.298,6.744 67.888,6.891 68.451,6.788C70.614,6.427 72.666,5.896 74.667,5.213C73.515,6.525 72.09,7.646 70.419,8.494C69.662,8.805 69.306,9.544 69.584,10.216C69.856,10.884 70.685,11.272 71.507,11.119C73.165,10.949 74.641,10.38 76.221,10.025C74.803,11.321 73.249,12.491 71.559,13.525C71.099,13.809 70.847,14.269 70.886,14.75C70.912,15.319 70.937,15.882 70.937,16.456C70.937,25.206 66.962,34.705 59.386,41.962C51.81,49.219 40.686,54.3 26.129,54.3C19.518,54.3 13.276,53.064 7.636,50.887C14.63,50.434 21.079,48.344 26.285,44.894C26.829,44.527 27.042,43.915 26.822,43.357C26.602,42.799 25.993,42.416 25.301,42.4C19.836,42.318 15.258,39.633 12.817,35.837C12.907,35.837 12.985,35.837 13.076,35.837C14.714,35.837 16.333,35.662 17.841,35.312C18.566,35.132 19.065,34.563 19.039,33.923C19.013,33.284 18.476,32.737 17.738,32.6C11.839,31.594 7.416,27.536 6.393,22.494C8.064,22.98 9.773,23.363 11.625,23.412C12.383,23.451 13.069,23.052 13.302,22.444C13.535,21.837 13.25,21.17 12.609,20.831C8.672,18.605 6.082,14.816 6.082,10.506C6.082,8.909 6.574,7.444 7.222,6.044C15.51,13.727 27.114,18.83 40.219,19.388C40.737,19.409 41.242,19.229 41.579,18.895C41.916,18.556 42.045,18.108 41.929,17.681C41.676,16.773 41.514,15.811 41.514,14.838C41.514,7.98 48.054,2.456 56.174,2.456Z" fill="#FFFFFF"/>
</svg>
