<svg width="82" height="58" viewBox="0 0 82 58" fill="none" xmlns="http://www.w3.org/2000/svg" xmlns:xlink="http://www.w3.org/1999/xlink">
<path d="M55.549,-0.344C45.757,-0.344 37.794,6.465 37.794,14.838C37.794,15.341 37.941,15.833 37.999,16.325C25.891,15.335 15.184,10.348 7.912,2.719C7.573,2.352 7.048,2.155 6.498,2.188C5.954,2.221 5.468,2.489 5.2,2.894C3.671,5.141 2.795,7.728 2.795,10.506C2.795,13.87 4.202,16.948 6.377,19.475C5.954,19.316 5.494,19.229 5.097,19.038C4.592,18.808 3.984,18.819 3.492,19.07C2.999,19.322 2.699,19.776 2.692,20.262L2.692,20.437C2.692,25.594 5.814,30.073 10.419,32.819C10.368,32.813 10.317,32.83 10.265,32.819C9.702,32.737 9.133,32.906 8.756,33.273C8.379,33.639 8.257,34.148 8.423,34.612C10.253,39.474 14.922,43.187 20.704,44.544C16.099,46.884 10.758,48.262 4.995,48.262C3.748,48.262 2.552,48.208 1.362,48.087C0.595,48 -0.141,48.383 -0.397,49.006C-0.659,49.63 -0.371,50.324 0.288,50.669C7.675,54.721 16.444,57.1 25.872,57.1C41.152,57.1 53.138,51.642 61.178,43.844C69.218,36.045 73.407,25.917 73.407,16.456C73.407,16.057 73.369,15.669 73.356,15.275C76.356,13.312 79.035,11.009 81.133,8.319C81.549,7.799 81.504,7.105 81.025,6.623C80.551,6.142 79.752,5.995 79.087,6.263C78.242,6.585 77.257,6.618 76.375,6.875C77.539,5.546 78.537,4.113 79.138,2.5C79.343,1.948 79.119,1.341 78.588,0.98C78.057,0.624 77.315,0.58 76.733,0.881C73.938,2.298 70.842,3.293 67.574,3.9C64.401,1.363 60.225,-0.344 55.549,-0.344ZM55.549,2.456C59.726,2.456 63.5,3.982 66.141,6.394C66.538,6.744 67.12,6.891 67.676,6.788C69.812,6.427 71.84,5.896 73.816,5.213C72.678,6.525 71.271,7.646 69.621,8.494C68.872,8.805 68.52,9.544 68.795,10.216C69.064,10.884 69.883,11.272 70.695,11.119C72.332,10.949 73.791,10.38 75.351,10.025C73.951,11.321 72.416,12.491 70.746,13.525C70.292,13.809 70.043,14.269 70.081,14.75C70.107,15.319 70.132,15.882 70.132,16.456C70.132,25.206 66.205,34.705 58.722,41.962C51.238,49.219 40.25,54.3 25.872,54.3C19.341,54.3 13.176,53.064 7.605,50.887C14.512,50.434 20.883,48.344 26.025,44.894C26.562,44.527 26.773,43.915 26.556,43.357C26.339,42.799 25.737,42.416 25.053,42.4C19.655,42.318 15.133,39.633 12.721,35.837C12.811,35.837 12.888,35.837 12.977,35.837C14.595,35.837 16.194,35.662 17.685,35.312C18.401,35.132 18.894,34.563 18.868,33.923C18.842,33.284 18.312,32.737 17.582,32.6C11.756,31.594 7.387,27.536 6.377,22.494C8.027,22.98 9.715,23.363 11.545,23.412C12.293,23.451 12.971,23.052 13.201,22.444C13.431,21.837 13.15,21.17 12.517,20.831C8.628,18.605 6.07,14.816 6.07,10.506C6.07,8.909 6.556,7.444 7.195,6.044C15.382,13.727 26.844,18.83 39.789,19.388C40.301,19.409 40.8,19.229 41.133,18.895C41.465,18.556 41.593,18.108 41.478,17.681C41.229,16.773 41.069,15.811 41.069,14.838C41.069,7.98 47.529,2.456 55.549,2.456Z" fill="#FFFFFF"/>
</svg>
