<svg width="104" height="114" viewBox="0 0 104 114" fill="none" xmlns="http://www.w3.org/2000/svg" xmlns:xlink="http://www.w3.org/1999/xlink">
<path d="M63.267,100.669C61.967,101.737 60.585,102.862 59.41,103.978L69.334,103.978C70.483,103.978 71.585,104.476 72.398,105.362C73.21,106.248 73.667,107.45 73.667,108.704C73.667,109.957 73.21,111.16 72.398,112.046C71.585,112.932 70.483,113.43 69.334,113.43L52,113.43C50.851,113.43 49.749,112.932 48.936,112.046C48.124,111.16 47.667,109.957 47.667,108.704C47.667,101.615 53.192,97.096 58.067,93.107C61.317,90.451 65,87.436 65,85.073C65,83.819 64.544,82.617 63.731,81.731C62.918,80.844 61.816,80.346 60.667,80.346C59.518,80.346 58.416,80.844 57.603,81.731C56.79,82.617 56.334,83.819 56.334,85.073C56.334,86.326 55.877,87.528 55.064,88.415C54.252,89.301 53.15,89.799 52,89.799C50.851,89.799 49.749,89.301 48.936,88.415C48.124,87.528 47.667,86.326 47.667,85.073C47.667,81.312 49.037,77.706 51.475,75.047C53.913,72.388 57.219,70.894 60.667,70.894C64.115,70.894 67.421,72.388 69.859,75.047C72.297,77.706 73.667,81.312 73.667,85.073C73.667,92.162 68.142,96.68 63.267,100.669ZM99.667,70.894C98.518,70.894 97.416,71.392 96.603,72.278C95.79,73.164 95.334,74.367 95.334,75.62L95.334,89.799L91,89.799C89.851,89.799 88.749,89.301 87.936,88.415C87.124,87.528 86.667,86.326 86.667,85.073L86.667,75.62C86.667,74.367 86.21,73.164 85.398,72.278C84.585,71.392 83.483,70.894 82.334,70.894C81.184,70.894 80.082,71.392 79.27,72.278C78.457,73.164 78,74.367 78,75.62L78,85.073C78,88.833 79.37,92.439 81.808,95.099C84.246,97.758 87.553,99.251 91,99.251L95.334,99.251L95.334,108.704C95.334,109.957 95.79,111.16 96.603,112.046C97.416,112.932 98.518,113.43 99.667,113.43C100.816,113.43 101.919,112.932 102.731,112.046C103.544,111.16 104,109.957 104,108.704L104,75.62C104,74.367 103.544,73.164 102.731,72.278C101.919,71.392 100.816,70.894 99.667,70.894ZM56.334,56.715L56.334,33.084C56.334,31.83 55.877,30.628 55.064,29.742C54.252,28.855 53.15,28.357 52,28.357C50.851,28.357 49.749,28.855 48.936,29.742C48.124,30.628 47.667,31.83 47.667,33.084L47.667,51.989L34.667,51.989C33.518,51.989 32.416,52.487 31.603,53.373C30.79,54.259 30.334,55.462 30.334,56.715C30.334,57.969 30.79,59.171 31.603,60.057C32.416,60.943 33.518,61.441 34.667,61.441L52,61.441C53.15,61.441 54.252,60.943 55.064,60.057C55.877,59.171 56.334,57.969 56.334,56.715ZM99.667,9.452C98.518,9.452 97.416,9.95 96.603,10.837C95.79,11.723 95.334,12.925 95.334,14.179L95.334,25.399C90.819,17.967 84.761,11.801 77.652,7.401C70.543,3.001 62.583,0.49 54.418,0.073C46.253,-0.344 38.113,1.345 30.658,5.001C23.203,8.658 16.644,14.18 11.512,21.119C6.38,28.058 2.82,36.219 1.122,44.94C-0.577,53.66 -0.367,62.695 1.735,71.31C3.837,79.926 7.771,87.879 13.219,94.526C18.667,101.172 25.475,106.324 33.09,109.564C33.593,109.776 34.128,109.885 34.667,109.885C35.678,109.887 36.658,109.503 37.437,108.8C38.216,108.096 38.745,107.118 38.932,106.034C39.119,104.95 38.953,103.829 38.462,102.865C37.971,101.901 37.187,101.154 36.244,100.754C29.779,98.028 24.008,93.649 19.415,87.986C14.823,82.324 11.543,75.542 9.85,68.21C8.158,60.879 8.103,53.211 9.69,45.852C11.277,38.492 14.46,31.656 18.971,25.915C23.482,20.175 29.19,15.699 35.615,12.862C42.041,10.026 48.996,8.912 55.898,9.614C62.8,10.317 69.446,12.814 75.28,16.898C81.113,20.982 85.963,26.532 89.423,33.084L78,33.084C76.851,33.084 75.749,33.582 74.936,34.468C74.124,35.354 73.667,36.556 73.667,37.81C73.667,39.063 74.124,40.266 74.936,41.152C75.749,42.038 76.851,42.536 78,42.536L91,42.536C94.448,42.536 97.755,41.042 100.193,38.383C102.631,35.724 104,32.118 104,28.357L104,14.179C104,12.925 103.544,11.723 102.731,10.837C101.919,9.95 100.816,9.452 99.667,9.452Z" fill="#A28C7F"/>
</svg>
