<svg width="16" height="16" viewBox="0 0 16 16" fill="none" xmlns="http://www.w3.org/2000/svg" xmlns:xlink="http://www.w3.org/1999/xlink">
<path d="M14.991,9.045C14.991,8.908 14.905,8.754 14.734,8.582L11.274,5.208L12.096,0.429L12.096,0.223C12.096,0.098 12.062,-0.011 11.993,-0.102C11.925,-0.194 11.831,-0.242 11.711,-0.248C11.591,-0.254 11.462,-0.216 11.325,-0.137L7.026,2.125L2.743,-0.137C2.606,-0.216 2.475,-0.256 2.349,-0.256C2.224,-0.256 2.127,-0.205 2.058,-0.102C1.99,0.001 1.955,0.109 1.955,0.223C1.955,0.269 1.961,0.337 1.973,0.429L2.795,5.208L-0.683,8.582C-0.842,8.754 -0.922,8.908 -0.922,9.045C-0.922,9.285 -0.745,9.433 -0.391,9.49L4.405,10.175L6.563,14.526C6.689,14.789 6.843,14.92 7.026,14.92C7.208,14.92 7.368,14.789 7.505,14.526L9.647,10.175L14.443,9.49C14.808,9.433 14.991,9.285 14.991,9.045Z" fill="#C3C5C9"/>
</svg>
