<svg width="16" height="16" viewBox="0 0 16 16" fill="none" xmlns="http://www.w3.org/2000/svg" xmlns:xlink="http://www.w3.org/1999/xlink">
<path d="M15.913,9.045C15.913,8.908 15.828,8.754 15.656,8.582L12.196,5.208L13.019,0.429L13.019,0.223C13.019,0.098 12.984,-0.011 12.916,-0.102C12.847,-0.194 12.753,-0.242 12.633,-0.248C12.513,-0.254 12.385,-0.216 12.248,-0.137L7.948,2.125L3.666,-0.137C3.529,-0.216 3.397,-0.256 3.272,-0.256C3.146,-0.256 3.049,-0.205 2.981,-0.102C2.912,0.001 2.878,0.109 2.878,0.223C2.878,0.269 2.883,0.337 2.895,0.429L3.717,5.208L0.24,8.582C0.08,8.754 0,8.908 0,9.045C0,9.285 0.177,9.433 0.531,9.49L5.327,10.175L7.486,14.526C7.611,14.789 7.765,14.92 7.948,14.92C8.131,14.92 8.291,14.789 8.428,14.526L10.569,10.175L15.365,9.49C15.731,9.433 15.913,9.285 15.913,9.045Z" fill="#C3C5C9"/>
</svg>
