<svg width="14" height="22" viewBox="0 0 14 22" fill="none" xmlns="http://www.w3.org/2000/svg" xmlns:xlink="http://www.w3.org/1999/xlink">
<path d="M13.323,10.556L3.387,0.596C3.211,0.436 3.011,0.356 2.787,0.356C2.563,0.356 2.363,0.436 2.187,0.596L-0.045,2.828C-0.221,3.004 -0.309,3.204 -0.309,3.428C-0.309,3.652 -0.221,3.852 -0.045,4.028L7.059,11.156L-0.045,18.26C-0.221,18.436 -0.309,18.636 -0.309,18.86C-0.309,19.084 -0.221,19.284 -0.045,19.46L2.187,21.692C2.347,21.868 2.547,21.956 2.787,21.956C3.027,21.956 3.227,21.868 3.387,21.692L13.323,11.756C13.483,11.58 13.563,11.38 13.563,11.156C13.563,10.932 13.483,10.732 13.323,10.556Z" fill="#000000"/>
</svg>
