<svg width="30" height="24" viewBox="0 0 30 24" fill="none" xmlns="http://www.w3.org/2000/svg" xmlns:xlink="http://www.w3.org/1999/xlink">
<path d="M11.63,2.208C11.63,1.628 11.42,1.128 11,0.708C10.58,0.288 10.08,0.068 9.5,0.048C8.92,0.028 8.42,0.248 8,0.708C7.58,1.168 7.36,1.668 7.34,2.208C7.32,2.748 7.54,3.248 8,3.708C8.46,4.168 8.96,4.378 9.5,4.338C10.04,4.298 10.54,4.088 11,3.708C11.46,3.328 11.67,2.828 11.63,2.208ZM26.63,2.208C26.63,1.628 26.42,1.128 26,0.708C25.58,0.288 25.08,0.068 24.5,0.048C23.92,0.028 23.42,0.248 23,0.708C22.58,1.168 22.36,1.668 22.34,2.208C22.32,2.748 22.54,3.248 23,3.708C23.46,4.168 23.96,4.378 24.5,4.338C25.04,4.298 25.54,4.088 26,3.708C26.46,3.328 26.67,2.828 26.63,2.208ZM28.79,20.418L28.79,11.838C28.79,11.578 28.69,11.348 28.49,11.148C28.29,10.948 28.07,10.828 27.83,10.788L10.34,8.748C10.48,8.068 10.55,7.658 10.55,7.518C10.55,7.378 10.42,7.038 10.16,6.498L25.55,6.498C25.85,6.498 26.11,6.388 26.33,6.168C26.55,5.948 26.65,5.698 26.63,5.418C26.61,5.138 26.51,4.888 26.33,4.668C26.15,4.448 25.89,4.338 25.55,4.338L8.42,4.338C8.14,4.338 7.89,4.448 7.67,4.668C7.45,4.888 7.34,5.138 7.34,5.418C7.34,5.538 7.39,5.718 7.49,5.958C7.59,6.198 7.68,6.398 7.76,6.558C7.84,6.718 7.96,6.938 8.12,7.218C8.28,7.498 8.36,7.668 8.36,7.728L5.42,21.498L2,21.498C1.7,21.498 1.45,21.598 1.25,21.798C1.05,21.998 0.94,22.248 0.92,22.548C0.9,22.848 1.01,23.108 1.25,23.328C1.49,23.548 1.74,23.648 2,23.628L6.29,23.628C6.47,23.628 6.63,23.598 6.77,23.538C6.91,23.478 7.01,23.388 7.07,23.268C7.13,23.148 7.21,23.008 7.31,22.848C7.41,22.688 7.45,22.548 7.43,22.428C7.41,22.308 7.44,22.138 7.52,21.918C7.6,21.698 7.63,21.558 7.61,21.498L27.71,21.498C27.99,21.498 28.24,21.388 28.46,21.168C28.68,20.948 28.79,20.698 28.79,20.418Z" fill="#333333"/>
</svg>
