<svg width="26" height="22" viewBox="0 0 26 22" fill="none" xmlns="http://www.w3.org/2000/svg" xmlns:xlink="http://www.w3.org/1999/xlink">
<path d="M9.784,1.159C9.784,0.618 9.588,0.151 9.196,-0.241C8.804,-0.633 8.337,-0.838 7.796,-0.857C7.254,-0.876 6.788,-0.67 6.396,-0.241C6.004,0.188 5.798,0.655 5.78,1.159C5.761,1.663 5.966,2.13 6.396,2.559C6.825,2.988 7.292,3.184 7.796,3.147C8.3,3.11 8.766,2.914 9.196,2.559C9.625,2.204 9.821,1.738 9.784,1.159ZM23.784,1.159C23.784,0.618 23.588,0.151 23.196,-0.241C22.804,-0.633 22.337,-0.838 21.796,-0.857C21.254,-0.876 20.788,-0.67 20.396,-0.241C20.004,0.188 19.798,0.655 19.78,1.159C19.761,1.663 19.966,2.13 20.396,2.559C20.825,2.988 21.292,3.184 21.796,3.147C22.3,3.11 22.766,2.914 23.196,2.559C23.625,2.204 23.821,1.738 23.784,1.159ZM25.8,18.155L25.8,10.147C25.8,9.904 25.706,9.69 25.52,9.503C25.333,9.316 25.128,9.204 24.904,9.167L8.58,7.263C8.71,6.628 8.776,6.246 8.776,6.115C8.776,5.984 8.654,5.667 8.412,5.163L22.776,5.163C23.056,5.163 23.298,5.06 23.504,4.855C23.709,4.65 23.802,4.416 23.784,4.155C23.765,3.894 23.672,3.66 23.504,3.455C23.336,3.25 23.093,3.147 22.776,3.147L6.788,3.147C6.526,3.147 6.293,3.25 6.088,3.455C5.882,3.66 5.78,3.894 5.78,4.155C5.78,4.267 5.826,4.435 5.92,4.659C6.013,4.883 6.097,5.07 6.172,5.219C6.246,5.368 6.358,5.574 6.508,5.835C6.657,6.096 6.732,6.255 6.732,6.311L3.988,19.163L0.796,19.163C0.516,19.163 0.282,19.256 0.096,19.443C-0.091,19.629 -0.194,19.863 -0.212,20.143C-0.231,20.423 -0.128,20.665 0.096,20.871C0.32,21.076 0.553,21.169 0.796,21.151L4.8,21.151C4.968,21.151 5.117,21.123 5.248,21.067C5.378,21.011 5.472,20.927 5.528,20.815C5.584,20.703 5.658,20.572 5.752,20.423C5.845,20.273 5.882,20.143 5.864,20.031C5.845,19.919 5.873,19.76 5.948,19.555C6.022,19.349 6.05,19.219 6.032,19.163L24.792,19.163C25.053,19.163 25.286,19.06 25.492,18.855C25.697,18.65 25.8,18.416 25.8,18.155Z" fill="#FFFFFF"/>
</svg>
