<svg width="16" height="16" viewBox="0 0 16 16" fill="none" xmlns="http://www.w3.org/2000/svg" xmlns:xlink="http://www.w3.org/1999/xlink">
<path d="M14.939,9.045C14.939,8.908 14.854,8.754 14.682,8.582L11.222,5.208L12.044,0.429L12.044,0.223C12.044,0.098 12.01,-0.011 11.942,-0.102C11.873,-0.194 11.779,-0.242 11.659,-0.248C11.539,-0.254 11.411,-0.216 11.274,-0.137L6.974,2.125L2.692,-0.137C2.555,-0.216 2.423,-0.256 2.298,-0.256C2.172,-0.256 2.075,-0.205 2.006,-0.102C1.938,0.001 1.904,0.109 1.904,0.223C1.904,0.269 1.909,0.337 1.921,0.429L2.743,5.208L-0.734,8.582C-0.894,8.754 -0.974,8.908 -0.974,9.045C-0.974,9.285 -0.797,9.433 -0.443,9.49L4.353,10.175L6.512,14.526C6.637,14.789 6.791,14.92 6.974,14.92C7.157,14.92 7.317,14.789 7.454,14.526L9.595,10.175L14.391,9.49C14.757,9.433 14.939,9.285 14.939,9.045Z" fill="#C3C5C9"/>
</svg>
