<svg width="14" height="22" viewBox="0 0 14 22" fill="none" xmlns="http://www.w3.org/2000/svg" xmlns:xlink="http://www.w3.org/1999/xlink">
<path d="M13.324,10.555L3.388,0.595C3.212,0.435 3.012,0.355 2.788,0.355C2.564,0.355 2.364,0.435 2.188,0.595L-0.044,2.827C-0.22,3.003 -0.308,3.203 -0.308,3.427C-0.308,3.651 -0.22,3.851 -0.044,4.027L7.06,11.155L-0.044,18.259C-0.22,18.435 -0.308,18.635 -0.308,18.859C-0.308,19.083 -0.22,19.283 -0.044,19.459L2.188,21.691C2.348,21.867 2.548,21.955 2.788,21.955C3.028,21.955 3.228,21.867 3.388,21.691L13.324,11.755C13.484,11.579 13.564,11.379 13.564,11.155C13.564,10.931 13.484,10.731 13.324,10.555Z" fill="#000000"/>
</svg>
