<svg width="14" height="22" viewBox="0 0 14 22" fill="none" xmlns="http://www.w3.org/2000/svg" xmlns:xlink="http://www.w3.org/1999/xlink">
<path d="M13.323,10.555L3.387,0.595C3.211,0.435 3.011,0.355 2.787,0.355C2.563,0.355 2.363,0.435 2.187,0.595L-0.045,2.827C-0.221,3.003 -0.309,3.203 -0.309,3.427C-0.309,3.651 -0.221,3.851 -0.045,4.027L7.059,11.155L-0.045,18.259C-0.221,18.435 -0.309,18.635 -0.309,18.859C-0.309,19.083 -0.221,19.283 -0.045,19.459L2.187,21.691C2.347,21.867 2.547,21.955 2.787,21.955C3.027,21.955 3.227,21.867 3.387,21.691L13.323,11.755C13.483,11.579 13.563,11.379 13.563,11.155C13.563,10.931 13.483,10.731 13.323,10.555Z" fill="#000000"/>
</svg>
