<svg width="18" height="16" viewBox="0 0 18 16" fill="none" xmlns="http://www.w3.org/2000/svg" xmlns:xlink="http://www.w3.org/1999/xlink">
<path d="M16.017,9.045C16.017,8.908 15.931,8.754 15.76,8.582L12.3,5.208L13.122,0.429L13.122,0.223C13.122,0.098 13.088,-0.011 13.019,-0.102C12.951,-0.194 12.857,-0.242 12.737,-0.248C12.617,-0.254 12.488,-0.216 12.351,-0.137L8.052,2.125L3.769,-0.137C3.632,-0.216 3.501,-0.256 3.375,-0.256C3.25,-0.256 3.153,-0.205 3.084,-0.102C3.016,0.001 2.981,0.109 2.981,0.223C2.981,0.269 2.987,0.337 2.998,0.429L3.821,5.208L0.343,8.582C0.183,8.754 0.104,8.908 0.104,9.045C0.104,9.285 0.281,9.433 0.635,9.49L5.431,10.175L7.589,14.526C7.715,14.789 7.869,14.92 8.052,14.92C8.234,14.92 8.394,14.789 8.531,14.526L10.672,10.175L15.469,9.49C15.834,9.433 16.017,9.285 16.017,9.045Z" fill="#C3C5C9"/>
</svg>
