<svg width="64" height="64" viewBox="0 0 64 64" fill="none" xmlns="http://www.w3.org/2000/svg" xmlns:xlink="http://www.w3.org/1999/xlink">
<path d="M7.68,0.08C3.501,0.08 0.08,3.501 0.08,7.68L0.08,56.32C0.08,60.499 3.501,63.92 7.68,63.92L33.265,63.92C33.429,63.947 33.596,63.947 33.76,63.92L42.385,63.92C42.549,63.947 42.716,63.947 42.88,63.92L56.32,63.92C60.499,63.92 63.92,60.499 63.92,56.32L63.92,7.68C63.92,3.501 60.499,0.08 56.32,0.08L7.68,0.08ZM7.68,3.12L56.32,3.12C58.856,3.12 60.88,5.144 60.88,7.68L60.88,56.32C60.88,58.856 58.856,60.88 56.32,60.88L44.16,60.88L44.16,39.6L49.967,39.6L52.095,28.96L44.16,28.96L44.16,25.92C44.16,25.073 44.241,25.006 44.525,24.822C44.81,24.637 45.689,24.4 47.2,24.4L51.76,24.4L51.76,15.841L50.893,15.428C50.893,15.428 47.402,13.76 42.64,13.76C39.22,13.76 36.41,15.123 34.612,17.37C32.815,19.617 32,22.627 32,25.92L32,28.96L27.44,28.96L27.44,39.6L32,39.6L32,60.88L7.68,60.88C5.144,60.88 3.12,58.856 3.12,56.32L3.12,7.68C3.12,5.144 5.144,3.12 7.68,3.12ZM42.64,16.8C45.8,16.8 47.789,17.497 48.72,17.866L48.72,21.36L47.2,21.36C45.451,21.36 44.049,21.505 42.869,22.271C41.688,23.038 41.12,24.493 41.12,25.92L41.12,32L48.385,32L47.473,36.56L41.12,36.56L41.12,60.88L35.04,60.88L35.04,36.56L30.48,36.56L30.48,32L35.04,32L35.04,25.92C35.04,23.133 35.745,20.823 36.987,19.27C38.23,17.717 39.98,16.8 42.64,16.8Z" fill="#FFFFFF"/>
</svg>
