<svg width="80" height="68" viewBox="0 0 80 68" fill="none" xmlns="http://www.w3.org/2000/svg" xmlns:xlink="http://www.w3.org/1999/xlink">
<path d="M24.04,0.56C11.298,0.56 0.93,9.425 0.93,20.32L0.93,47.68C0.93,58.575 11.298,67.44 24.04,67.44L56.039,67.44C68.781,67.44 79.15,58.575 79.15,47.68L79.15,20.32C79.15,9.425 68.781,0.56 56.039,0.56L24.04,0.56ZM24.04,3.6L56.039,3.6C66.859,3.6 75.594,11.069 75.594,20.32L75.594,47.68C75.594,56.931 66.859,64.4 56.039,64.4L24.04,64.4C13.22,64.4 4.485,56.931 4.485,47.68L4.485,20.32C4.485,11.069 13.22,3.6 24.04,3.6ZM61.372,12.72C59.409,12.72 57.817,14.081 57.817,15.76C57.817,17.439 59.409,18.8 61.372,18.8C63.336,18.8 64.928,17.439 64.928,15.76C64.928,14.081 63.336,12.72 61.372,12.72ZM40.04,17.28C29.261,17.28 20.485,24.784 20.485,34C20.485,43.216 29.261,50.72 40.04,50.72C50.819,50.72 59.595,43.216 59.595,34C59.595,24.784 50.819,17.28 40.04,17.28ZM40.04,20.32C48.897,20.32 56.039,26.427 56.039,34C56.039,41.573 48.897,47.68 40.04,47.68C31.182,47.68 24.04,41.573 24.04,34C24.04,26.427 31.182,20.32 40.04,20.32Z" fill="#FFFFFF"/>
</svg>
