<svg width="82" height="68" viewBox="0 0 82 68" fill="none" xmlns="http://www.w3.org/2000/svg" xmlns:xlink="http://www.w3.org/1999/xlink">
<path d="M24.378,0.56C11.479,0.56 0.982,9.425 0.982,20.32L0.982,47.68C0.982,58.575 11.479,67.44 24.378,67.44L56.773,67.44C69.673,67.44 80.17,58.575 80.17,47.68L80.17,20.32C80.17,9.425 69.673,0.56 56.773,0.56L24.378,0.56ZM24.378,3.6L56.773,3.6C67.727,3.6 76.57,11.069 76.57,20.32L76.57,47.68C76.57,56.931 67.727,64.4 56.773,64.4L24.378,64.4C13.424,64.4 4.581,56.931 4.581,47.68L4.581,20.32C4.581,11.069 13.424,3.6 24.378,3.6ZM62.173,12.72C60.185,12.72 58.573,14.081 58.573,15.76C58.573,17.439 60.185,18.8 62.173,18.8C64.16,18.8 65.772,17.439 65.772,15.76C65.772,14.081 64.16,12.72 62.173,12.72ZM40.576,17.28C29.664,17.28 20.779,24.784 20.779,34C20.779,43.216 29.664,50.72 40.576,50.72C51.488,50.72 60.373,43.216 60.373,34C60.373,24.784 51.488,17.28 40.576,17.28ZM40.576,20.32C49.543,20.32 56.773,26.427 56.773,34C56.773,41.573 49.543,47.68 40.576,47.68C31.609,47.68 24.378,41.573 24.378,34C24.378,26.427 31.609,20.32 40.576,20.32Z" fill="#FFFFFF"/>
</svg>
