<svg width="106" height="140" viewBox="0 0 106 140" fill="none" xmlns="http://www.w3.org/2000/svg" xmlns:xlink="http://www.w3.org/1999/xlink">
<path d="M78,48.875C78,52.687 76.859,56.343 74.827,59.039C72.795,61.735 70.04,63.25 67.167,63.25C64.294,63.25 61.538,61.735 59.506,59.039C57.475,56.343 56.333,52.687 56.333,48.875C56.333,45.062 57.475,41.406 59.506,38.71C61.538,36.014 64.294,34.5 67.167,34.5C70.04,34.5 72.795,36.014 74.827,38.71C76.859,41.406 78,45.062 78,48.875ZM77.974,88.354C77.736,97.49 76.017,106.451 72.934,114.626C70.094,121.753 65.829,127.705 60.607,131.828C55.386,135.951 49.409,138.087 43.333,138L39,138L39,106.375C38.981,101.045 37.377,95.941 34.536,92.172C31.696,88.404 27.85,86.275 23.833,86.25L0,86.25L0,80.5C-0.066,72.437 1.544,64.507 4.651,57.578C7.758,50.65 12.244,44.99 17.615,41.221C23.776,37.131 30.529,34.85 37.414,34.534C43.727,23.714 51.834,14.97 61.107,8.981C70.379,2.992 80.566,-0.082 90.879,0C92.595,-0.015 94.296,0.42 95.885,1.28C97.474,2.14 98.919,3.408 100.138,5.01C101.357,6.613 102.326,8.519 102.989,10.619C103.651,12.719 103.995,14.973 104,17.25C104.073,30.959 101.764,44.506 97.25,56.838C92.736,69.17 86.14,79.955 77.974,88.354ZM9.031,74.75L18.833,74.75C22.051,65.239 25.831,56.081 30.138,47.362C27.147,48.286 24.248,49.676 21.502,51.502C18.2,53.816 15.352,57.124 13.186,61.161C11.02,65.198 9.597,69.852 9.031,74.75ZM68.306,98.008C61.736,103.724 54.834,108.74 47.667,113.01L47.667,126.017C51.358,125.265 54.865,123.376 57.907,120.503C60.95,117.629 63.443,113.85 65.186,109.468C66.563,105.825 67.61,101.978 68.306,98.008ZM95.333,17.089C95.302,15.592 94.831,14.17 94.022,13.126C93.213,12.083 92.129,11.499 91,11.5C68.64,12.345 53.517,23.713 38.922,50.726C34.849,58.507 31.268,66.721 28.214,75.284C32.946,76.454 37.3,79.497 40.703,84.012C44.107,88.528 46.4,94.306 47.281,100.584C53.735,96.532 59.925,91.78 65.789,86.376C86.129,66.987 94.696,46.92 95.333,17.089ZM26.529,102.804C28.95,106.05 30.308,110.432 30.308,115C30.308,119.567 28.95,123.949 26.529,127.195C22.598,132.405 10.833,135.619 5.954,136.763L-0.139,138.184L0.932,130.099C1.798,123.625 4.216,108.013 8.142,102.798C10.62,99.662 13.913,97.913 17.336,97.915C20.76,97.916 24.052,99.667 26.529,102.804ZM21.667,115C21.668,114.244 21.557,113.496 21.339,112.798C21.121,112.1 20.801,111.467 20.397,110.934C19.584,109.856 18.482,109.251 17.333,109.251C16.184,109.251 15.082,109.856 14.27,110.934C12.618,114.892 11.457,119.177 10.833,123.625C14.186,122.793 17.417,121.252 20.401,119.059C20.804,118.527 21.123,117.894 21.34,117.197C21.557,116.5 21.668,115.754 21.667,115Z" fill="#A28C7F"/>
</svg>
