<svg width="76" height="64" viewBox="0 0 76 64" fill="none" xmlns="http://www.w3.org/2000/svg" xmlns:xlink="http://www.w3.org/1999/xlink">
<path d="M9.234,0.08C4.395,0.08 0.434,3.501 0.434,7.68L0.434,56.32C0.434,60.499 4.395,63.92 9.234,63.92L38.861,63.92C39.051,63.947 39.245,63.947 39.435,63.92L49.422,63.92C49.612,63.947 49.806,63.947 49.996,63.92L65.559,63.92C70.398,63.92 74.359,60.499 74.359,56.32L74.359,7.68C74.359,3.501 70.398,0.08 65.559,0.08L9.234,0.08ZM9.234,3.12L65.559,3.12C68.495,3.12 70.839,5.144 70.839,7.68L70.839,56.32C70.839,58.856 68.495,60.88 65.559,60.88L51.478,60.88L51.478,39.6L58.202,39.6L60.667,28.96L51.478,28.96L51.478,25.92C51.478,25.073 51.571,25.006 51.9,24.822C52.23,24.637 53.248,24.4 54.998,24.4L60.278,24.4L60.278,15.841L59.275,15.428C59.275,15.428 55.231,13.76 49.717,13.76C45.757,13.76 42.504,15.123 40.422,17.37C38.34,19.617 37.397,22.627 37.397,25.92L37.397,28.96L32.116,28.96L32.116,39.6L37.397,39.6L37.397,60.88L9.234,60.88C6.298,60.88 3.954,58.856 3.954,56.32L3.954,7.68C3.954,5.144 6.298,3.12 9.234,3.12ZM49.717,16.8C53.377,16.8 55.68,17.497 56.758,17.866L56.758,21.36L54.998,21.36C52.972,21.36 51.349,21.505 49.982,22.271C48.615,23.038 47.957,24.493 47.957,25.92L47.957,32L56.37,32L55.314,36.56L47.957,36.56L47.957,60.88L40.917,60.88L40.917,36.56L35.636,36.56L35.636,32L40.917,32L40.917,25.92C40.917,23.133 41.734,20.823 43.172,19.27C44.61,17.717 46.637,16.8 49.717,16.8Z" fill="#FFFFFF"/>
</svg>
