<svg width="68" height="68" viewBox="0 0 68 68" fill="none" xmlns="http://www.w3.org/2000/svg" xmlns:xlink="http://www.w3.org/1999/xlink">
<path d="M20.32,0.56C9.425,0.56 0.56,9.425 0.56,20.32L0.56,47.68C0.56,58.575 9.425,67.44 20.32,67.44L47.68,67.44C58.575,67.44 67.44,58.575 67.44,47.68L67.44,20.32C67.44,9.425 58.575,0.56 47.68,0.56L20.32,0.56ZM20.32,3.6L47.68,3.6C56.931,3.6 64.4,11.069 64.4,20.32L64.4,47.68C64.4,56.931 56.931,64.4 47.68,64.4L20.32,64.4C11.069,64.4 3.6,56.931 3.6,47.68L3.6,20.32C3.6,11.069 11.069,3.6 20.32,3.6ZM52.24,12.72C50.561,12.72 49.2,14.081 49.2,15.76C49.2,17.439 50.561,18.8 52.24,18.8C53.919,18.8 55.28,17.439 55.28,15.76C55.28,14.081 53.919,12.72 52.24,12.72ZM34,17.28C24.784,17.28 17.28,24.784 17.28,34C17.28,43.216 24.784,50.72 34,50.72C43.216,50.72 50.72,43.216 50.72,34C50.72,24.784 43.216,17.28 34,17.28ZM34,20.32C41.573,20.32 47.68,26.427 47.68,34C47.68,41.573 41.573,47.68 34,47.68C26.427,47.68 20.32,41.573 20.32,34C20.32,26.427 26.427,20.32 34,20.32Z" fill="#FFFFFF"/>
</svg>
