<svg width="30" height="24" viewBox="0 0 30 24" fill="none" xmlns="http://www.w3.org/2000/svg" xmlns:xlink="http://www.w3.org/1999/xlink">
<path d="M11.65,2.209C11.65,1.629 11.44,1.129 11.02,0.709C10.6,0.289 10.1,0.069 9.52,0.049C8.94,0.029 8.44,0.249 8.02,0.709C7.6,1.169 7.38,1.669 7.36,2.209C7.34,2.749 7.56,3.249 8.02,3.709C8.48,4.169 8.98,4.379 9.52,4.339C10.06,4.299 10.56,4.089 11.02,3.709C11.48,3.329 11.69,2.829 11.65,2.209ZM26.65,2.209C26.65,1.629 26.44,1.129 26.02,0.709C25.6,0.289 25.1,0.069 24.52,0.049C23.94,0.029 23.44,0.249 23.02,0.709C22.6,1.169 22.38,1.669 22.36,2.209C22.34,2.749 22.56,3.249 23.02,3.709C23.48,4.169 23.98,4.379 24.52,4.339C25.06,4.299 25.56,4.089 26.02,3.709C26.48,3.329 26.69,2.829 26.65,2.209ZM28.81,20.419L28.81,11.839C28.81,11.579 28.71,11.349 28.51,11.149C28.31,10.949 28.09,10.829 27.85,10.789L10.36,8.749C10.5,8.069 10.57,7.659 10.57,7.519C10.57,7.379 10.44,7.039 10.18,6.499L25.57,6.499C25.87,6.499 26.13,6.389 26.35,6.169C26.57,5.949 26.67,5.699 26.65,5.419C26.63,5.139 26.53,4.889 26.35,4.669C26.17,4.449 25.91,4.339 25.57,4.339L8.44,4.339C8.16,4.339 7.91,4.449 7.69,4.669C7.47,4.889 7.36,5.139 7.36,5.419C7.36,5.539 7.41,5.719 7.51,5.959C7.61,6.199 7.7,6.399 7.78,6.559C7.86,6.719 7.98,6.939 8.14,7.219C8.3,7.499 8.38,7.669 8.38,7.729L5.44,21.499L2.02,21.499C1.72,21.499 1.47,21.599 1.27,21.799C1.07,21.999 0.96,22.249 0.94,22.549C0.92,22.849 1.03,23.109 1.27,23.329C1.51,23.549 1.76,23.649 2.02,23.629L6.31,23.629C6.49,23.629 6.65,23.599 6.79,23.539C6.93,23.479 7.03,23.389 7.09,23.269C7.15,23.149 7.23,23.009 7.33,22.849C7.43,22.689 7.47,22.549 7.45,22.429C7.43,22.309 7.46,22.139 7.54,21.919C7.62,21.699 7.65,21.559 7.63,21.499L27.73,21.499C28.01,21.499 28.26,21.389 28.48,21.169C28.7,20.949 28.81,20.699 28.81,20.419Z" fill="#333333"/>
</svg>
