<svg width="78" height="68" viewBox="0 0 78 68" fill="none" xmlns="http://www.w3.org/2000/svg" xmlns:xlink="http://www.w3.org/1999/xlink">
<path d="M23.37,0.56C10.754,0.56 0.488,9.425 0.488,20.32L0.488,47.68C0.488,58.575 10.754,67.44 23.37,67.44L55.053,67.44C67.668,67.44 77.934,58.575 77.934,47.68L77.934,20.32C77.934,9.425 67.668,0.56 55.053,0.56L23.37,0.56ZM23.37,3.6L55.053,3.6C65.766,3.6 74.414,11.069 74.414,20.32L74.414,47.68C74.414,56.931 65.766,64.4 55.053,64.4L23.37,64.4C12.657,64.4 4.009,56.931 4.009,47.68L4.009,20.32C4.009,11.069 12.657,3.6 23.37,3.6ZM60.333,12.72C58.389,12.72 56.813,14.081 56.813,15.76C56.813,17.439 58.389,18.8 60.333,18.8C62.277,18.8 63.853,17.439 63.853,15.76C63.853,14.081 62.277,12.72 60.333,12.72ZM39.211,17.28C28.539,17.28 19.85,24.784 19.85,34C19.85,43.216 28.539,50.72 39.211,50.72C49.883,50.72 58.573,43.216 58.573,34C58.573,24.784 49.883,17.28 39.211,17.28ZM39.211,20.32C47.981,20.32 55.053,26.427 55.053,34C55.053,41.573 47.981,47.68 39.211,47.68C30.442,47.68 23.37,41.573 23.37,34C23.37,26.427 30.442,20.32 39.211,20.32Z" fill="#FFFFFF"/>
</svg>
