<svg width="72" height="58" viewBox="0 0 72 58" fill="none" xmlns="http://www.w3.org/2000/svg" xmlns:xlink="http://www.w3.org/1999/xlink">
<path d="M47.906,-0.344C39.534,-0.344 32.725,6.465 32.725,14.838C32.725,15.341 32.851,15.833 32.9,16.325C22.548,15.335 13.393,10.348 7.175,2.719C6.885,2.352 6.437,2.155 5.966,2.188C5.502,2.221 5.086,2.489 4.856,2.894C3.549,5.141 2.8,7.728 2.8,10.506C2.8,13.87 4.003,16.948 5.863,19.475C5.502,19.316 5.108,19.229 4.769,19.038C4.337,18.808 3.817,18.819 3.396,19.07C2.975,19.322 2.718,19.776 2.713,20.262L2.713,20.437C2.713,25.594 5.381,30.073 9.319,32.819C9.275,32.813 9.231,32.83 9.188,32.819C8.706,32.737 8.22,32.906 7.897,33.273C7.574,33.639 7.47,34.148 7.613,34.612C9.177,39.474 13.169,43.187 18.113,44.544C14.175,46.884 9.609,48.262 4.681,48.262C3.615,48.262 2.592,48.208 1.575,48.087C0.919,48 0.29,48.383 0.071,49.006C-0.153,49.63 0.093,50.324 0.656,50.669C6.973,54.721 14.47,57.1 22.531,57.1C35.596,57.1 45.845,51.642 52.719,43.844C59.593,36.045 63.175,25.917 63.175,16.456C63.175,16.057 63.142,15.669 63.131,15.275C65.696,13.312 67.988,11.009 69.781,8.319C70.137,7.799 70.099,7.105 69.688,6.623C69.284,6.142 68.6,5.995 68.031,6.263C67.309,6.585 66.467,6.618 65.713,6.875C66.708,5.546 67.561,4.113 68.075,2.5C68.25,1.948 68.059,1.341 67.605,0.98C67.151,0.624 66.517,0.58 66.019,0.881C63.629,2.298 60.982,3.293 58.188,3.9C55.475,1.362 51.904,-0.344 47.906,-0.344ZM47.906,2.456C51.477,2.456 54.704,3.982 56.963,6.394C57.302,6.744 57.799,6.891 58.275,6.788C60.102,6.427 61.835,5.896 63.525,5.213C62.552,6.525 61.349,7.646 59.938,8.494C59.298,8.805 58.997,9.544 59.232,10.216C59.462,10.884 60.162,11.272 60.856,11.119C62.256,10.949 63.503,10.38 64.838,10.025C63.64,11.321 62.327,12.491 60.9,13.525C60.512,13.809 60.299,14.269 60.331,14.75C60.353,15.319 60.375,15.882 60.375,16.456C60.375,25.206 57.017,34.705 50.619,41.962C44.22,49.219 34.825,54.3 22.531,54.3C16.948,54.3 11.676,53.064 6.913,50.887C12.819,50.434 18.266,48.344 22.663,44.894C23.122,44.527 23.302,43.915 23.116,43.357C22.931,42.799 22.416,42.416 21.831,42.4C17.216,42.318 13.349,39.633 11.288,35.837C11.364,35.837 11.43,35.837 11.506,35.837C12.89,35.837 14.257,35.662 15.531,35.312C16.144,35.132 16.565,34.563 16.543,33.923C16.521,33.284 16.067,32.737 15.444,32.6C10.462,31.594 6.727,27.536 5.863,22.494C7.273,22.98 8.717,23.363 10.281,23.412C10.921,23.451 11.501,23.052 11.698,22.444C11.895,21.837 11.654,21.17 11.113,20.831C7.788,18.605 5.6,14.816 5.6,10.506C5.6,8.909 6.016,7.444 6.563,6.044C13.563,13.727 23.363,18.83 34.431,19.388C34.869,19.409 35.295,19.229 35.58,18.895C35.864,18.556 35.974,18.108 35.875,17.681C35.662,16.773 35.525,15.811 35.525,14.838C35.525,7.98 41.049,2.456 47.906,2.456Z" fill="#FFFFFF"/>
</svg>
