<svg width="104" height="138" viewBox="0 0 104 138" fill="none" xmlns="http://www.w3.org/2000/svg" xmlns:xlink="http://www.w3.org/1999/xlink">
<path d="M63.267,122.475C61.967,123.774 60.585,125.143 59.41,126.5L69.334,126.5C70.483,126.5 71.585,127.106 72.398,128.184C73.21,129.262 73.667,130.725 73.667,132.25C73.667,133.775 73.21,135.237 72.398,136.316C71.585,137.394 70.483,138 69.334,138L52,138C50.851,138 49.749,137.394 48.936,136.316C48.124,135.237 47.667,133.775 47.667,132.25C47.667,123.625 53.192,118.128 58.067,113.275C61.317,110.043 65,106.375 65,103.5C65,101.975 64.544,100.512 63.731,99.434C62.918,98.356 61.816,97.75 60.667,97.75C59.518,97.75 58.416,98.356 57.603,99.434C56.79,100.512 56.334,101.975 56.334,103.5C56.334,105.025 55.877,106.487 55.064,107.566C54.252,108.644 53.15,109.25 52,109.25C50.851,109.25 49.749,108.644 48.936,107.566C48.124,106.487 47.667,105.025 47.667,103.5C47.667,98.925 49.037,94.537 51.475,91.302C53.913,88.067 57.219,86.25 60.667,86.25C64.115,86.25 67.421,88.067 69.859,91.302C72.297,94.537 73.667,98.925 73.667,103.5C73.667,112.125 68.142,117.622 63.267,122.475ZM99.667,86.25C98.518,86.25 97.416,86.856 96.603,87.934C95.79,89.012 95.334,90.475 95.334,92L95.334,109.25L91,109.25C89.851,109.25 88.749,108.644 87.936,107.566C87.124,106.487 86.667,105.025 86.667,103.5L86.667,92C86.667,90.475 86.21,89.012 85.398,87.934C84.585,86.856 83.483,86.25 82.334,86.25C81.184,86.25 80.082,86.856 79.27,87.934C78.457,89.012 78,90.475 78,92L78,103.5C78,108.075 79.37,112.462 81.808,115.697C84.246,118.932 87.553,120.75 91,120.75L95.334,120.75L95.334,132.25C95.334,133.775 95.79,135.237 96.603,136.316C97.416,137.394 98.518,138 99.667,138C100.816,138 101.919,137.394 102.731,136.316C103.544,135.237 104,133.775 104,132.25L104,92C104,90.475 103.544,89.012 102.731,87.934C101.919,86.856 100.816,86.25 99.667,86.25ZM56.334,69L56.334,40.25C56.334,38.725 55.877,37.262 55.064,36.184C54.252,35.106 53.15,34.5 52,34.5C50.851,34.5 49.749,35.106 48.936,36.184C48.124,37.262 47.667,38.725 47.667,40.25L47.667,63.25L34.667,63.25C33.518,63.25 32.416,63.856 31.603,64.934C30.79,66.012 30.334,67.475 30.334,69C30.334,70.525 30.79,71.987 31.603,73.066C32.416,74.144 33.518,74.75 34.667,74.75L52,74.75C53.15,74.75 54.252,74.144 55.064,73.066C55.877,71.987 56.334,70.525 56.334,69ZM99.667,11.5C98.518,11.5 97.416,12.106 96.603,13.184C95.79,14.262 95.334,15.725 95.334,17.25L95.334,30.9C90.819,21.859 84.761,14.357 77.652,9.004C70.543,3.65 62.583,0.596 54.418,0.089C46.253,-0.418 38.113,1.636 30.658,6.085C23.203,10.534 16.644,17.252 11.512,25.694C6.38,34.136 2.82,44.065 1.122,54.674C-0.577,65.284 -0.367,76.275 1.735,86.756C3.837,97.238 7.771,106.914 13.219,115.001C18.667,123.087 25.475,129.355 33.09,133.296C33.593,133.554 34.128,133.686 34.667,133.687C35.678,133.689 36.658,133.222 37.437,132.366C38.216,131.511 38.745,130.321 38.932,129.002C39.119,127.683 38.953,126.319 38.462,125.146C37.971,123.973 37.187,123.065 36.244,122.578C29.779,119.261 24.008,113.934 19.415,107.045C14.823,100.155 11.543,91.905 9.85,82.985C8.158,74.065 8.103,64.737 9.69,55.784C11.277,46.83 14.46,38.512 18.971,31.529C23.482,24.545 29.19,19.099 35.615,15.648C42.041,12.198 48.996,10.842 55.898,11.697C62.8,12.551 69.446,15.59 75.28,20.558C81.113,25.527 85.963,32.279 89.423,40.25L78,40.25C76.851,40.25 75.749,40.856 74.936,41.934C74.124,43.012 73.667,44.475 73.667,46C73.667,47.525 74.124,48.987 74.936,50.066C75.749,51.144 76.851,51.75 78,51.75L91,51.75C94.448,51.75 97.755,49.932 100.193,46.697C102.631,43.462 104,39.075 104,34.5L104,17.25C104,15.725 103.544,14.262 102.731,13.184C101.919,12.106 100.816,11.5 99.667,11.5Z" fill="#A28C7F"/>
</svg>
