<svg width="14" height="22" viewBox="0 0 14 22" fill="none" xmlns="http://www.w3.org/2000/svg" xmlns:xlink="http://www.w3.org/1999/xlink">
<path d="M13.324,10.556L3.388,0.596C3.212,0.436 3.012,0.356 2.788,0.356C2.564,0.356 2.364,0.436 2.188,0.596L-0.044,2.828C-0.22,3.004 -0.308,3.204 -0.308,3.428C-0.308,3.652 -0.22,3.852 -0.044,4.028L7.06,11.156L-0.044,18.26C-0.22,18.436 -0.308,18.636 -0.308,18.86C-0.308,19.084 -0.22,19.284 -0.044,19.46L2.188,21.692C2.348,21.868 2.548,21.956 2.788,21.956C3.028,21.956 3.228,21.868 3.388,21.692L13.324,11.756C13.484,11.58 13.564,11.38 13.564,11.156C13.564,10.932 13.484,10.732 13.324,10.556Z" fill="#000000"/>
</svg>
